<?xml version="1.0" encoding="utf-8"?>
<!-- Generator: Adobe Illustrator 25.3.1, SVG Export Plug-In . SVG Version: 6.00 Build 0)  -->
<svg version="1.1" id="Capa_1" xmlns="http://www.w3.org/2000/svg" xmlns:xlink="http://www.w3.org/1999/xlink" x="0px" y="0px"
	 viewBox="0 0 497 600" style="enable-background:new 0 0 497 600;" xml:space="preserve">
<style type="text/css">
	.st0{fill:none;}
	.st1{fill:#167D86;}
	.st2{opacity:0.5;}
	.st3{fill-rule:evenodd;clip-rule:evenodd;fill:#2E3185;}
	.st4{opacity:0.5;fill:none;stroke:#2E3185;stroke-width:2;stroke-miterlimit:10;}
	.st5{opacity:0.5;fill-rule:evenodd;clip-rule:evenodd;fill:none;stroke:#2E3185;stroke-width:2;stroke-miterlimit:10;}
	
		.st6{opacity:0.5;fill-rule:evenodd;clip-rule:evenodd;fill:none;stroke:#2E3185;stroke-width:2;stroke-linecap:round;stroke-linejoin:round;stroke-miterlimit:10;stroke-dasharray:8;}
	.st7{opacity:0.5;fill-rule:evenodd;clip-rule:evenodd;fill:#2E3185;stroke:#FFFFFF;stroke-miterlimit:10;}
</style>
<pattern  y="600" width="0.1" height="1" patternUnits="userSpaceOnUse" id="container-ribs" viewBox="0 -1 0.1 1" style="overflow:visible;">
	<g>
		<rect y="-1" class="st0" width="0.1" height="1"/>
		<rect x="1" y="-25" class="st1" width="1" height="25"/>
	</g>
</pattern>
<g class="st2">
	<path class="st3" d="M437.4,129.7 M293.5,180.6l21.7,21.3l91.5-48.2c20.8-11.2,26.7-19.6,28-24.6c0.3-1.3-0.1-1.6-0.2-1.7
		c-0.7-0.8-4.6-2.8-23.6,1.9l-20.6,10.4l-11.7,6.3c-0.6,0.3-1.3,0.4-2,0.2l-55-15.4l-8.4,5l36.6,26.8c1.2,0.9,1.5,2.7,0.6,4
		c-0.2,0.3-0.5,0.6-0.8,0.8l-27.4,17.4c-0.6,0.4-1.5,0.5-2.2,0.3l-22.8-6.9L293.5,180.6z M314.7,208.2c-0.7,0-1.4-0.3-1.9-0.8
		L287,182.1c-1.1-1.1-1.2-2.9-0.1-4c0.2-0.2,0.4-0.4,0.6-0.5l8.1-5c0.6-0.4,1.4-0.5,2.2-0.3l22.7,6.9l22.8-14.6l-36.7-26.9
		c-1.2-0.9-1.5-2.7-0.6-4c0.2-0.3,0.5-0.6,0.9-0.8l13.1-7.8c0.6-0.4,1.4-0.5,2.1-0.3l55.1,15.4l10.8-5.8l20.9-10.6
		c0.2-0.1,0.4-0.2,0.6-0.2c20.8-5.2,26.4-3.2,29-0.6c1.7,1.9,2.4,4.6,1.7,7.1l0,0.2c-2.3,9.1-12.4,18.4-30.8,28.3L316,207.9
		C315.6,208.1,315.2,208.2,314.7,208.2z"/>
</g>
<g class="st2">
	<path class="st3" d="M352.2,501.9c-5.2,0-9.4,4.2-9.4,9.4c0,5.2,4.2,9.4,9.4,9.4c5.2,0,9.4-4.2,9.4-9.4c0,0,0,0,0,0
		C361.6,506.1,357.4,501.9,352.2,501.9z M352.2,526.6c-8.4,0-15.3-6.9-15.3-15.3c0-8.5,6.9-15.3,15.3-15.3c8.4,0,15.3,6.9,15.3,15.3
		C367.5,519.8,360.6,526.6,352.2,526.6z"/>
	<path class="st3" d="M352.4,511.5L352.4,511.5l3,0L352.4,511.5z M352.4,517.5c-3.3,0-6.1-2.7-6.1-6.1c0-3.3,2.7-6.1,6.1-6.1
		c3.3,0,6.1,2.7,6.1,6.1C358.4,514.8,355.7,517.5,352.4,517.5z"/>
	<path class="st3" d="M440.3,501.9c-5.2,0-9.4,4.2-9.4,9.4c0,5.2,4.2,9.4,9.4,9.4c5.2,0,9.4-4.2,9.4-9.4v0
		C449.7,506.1,445.5,501.9,440.3,501.9z M440.3,526.6c-8.4,0-15.3-6.9-15.3-15.3c0-8.5,6.9-15.3,15.3-15.3s15.3,6.9,15.3,15.3
		C455.6,519.8,448.8,526.6,440.3,526.6z"/>
	<path class="st3" d="M440.1,511.5L440.1,511.5l3,0L440.1,511.5z M440.1,517.5c-3.3,0-6.1-2.7-6.1-6.1c0-3.3,2.7-6.1,6.1-6.1
		c3.3,0,6.1,2.7,6.1,6.1C446.2,514.8,443.5,517.5,440.1,517.5z"/>
	<rect x="364.9" y="508.1" class="st3" width="62.8" height="6.1"/>
	<path class="st3" d="M339.9,514.1h-25.4c-1.7,0-3-1.3-3-3v-75c0-1.7,1.3-3,3-3h99.5c1.7,0,3,1.3,3,3v54.3c0,1.6-1.3,3-3,3
		c-1.6,0-3-1.3-3-3v-51.4h-93.5v69h22.4c1.6,0,3,1.3,3,3S341.6,514.1,339.9,514.1z"/>
	<path class="st3" d="M465.4,514.1h-12.8c-1.6,0-3-1.3-3-3s1.3-3,3-3h12.8c0.8,0,1.6-0.4,2-1.1v-10.4c-2.6-4.4-16.5-27.1-19.7-32
		l-1.5-2.4c-3.5-5.5-4.5-6.8-6.4-6.8H414c-1.7,0-3-1.4-3-3s1.3-3,3-3h25.8c5.4,0,7.8,3.8,11.4,9.6l1.5,2.3
		c3.5,5.5,19.5,31.8,20.2,32.9c0.3,0.5,0.4,1,0.4,1.6v11.3C473,511.3,469.5,514.3,465.4,514.1z"/>
	<path class="st3" d="M449.2,465.7h-28.1c-1.6,0-3-1.4-3-3c0-1.7,1.3-3,3-3h28.1c1.7,0,3,1.4,3,3
		C452.2,464.4,450.9,465.7,449.2,465.7z"/>
	<path class="st3" d="M469.3,502h-28.1c-1.6,0-3-1.4-3-3c0-1.7,1.3-3,3-3h28.1c1.6,0,3,1.4,3,3C472.3,500.7,471,502,469.3,502z"/>
	<path class="st3" d="M459.9,482h-30.4c-1.6,0-3-1.3-3-3v-8c0-1.7,1.3-3,3-3c1.6,0,3,1.3,3,3v5h27.4c1.6,0,3,1.3,3,3
		C462.8,480.7,461.5,482,459.9,482z"/>
	<path class="st3" d="M455.2,501.3c-1.6,0-3-1.3-3-3v-5.4c-0.1-2.1,0.7-4.1,2.2-5.6c1.7-1.5,3.9-2.3,6.2-2.2l4.9,0c1.6,0,3,1.3,3,3
		s-1.3,3-3,3h-5c-0.7,0-1.4,0.2-2,0.6c-0.1,0.1-0.4,0.4-0.4,1.3v5.4C458.2,499.9,456.8,501.3,455.2,501.3z"/>
	<path class="st3" d="M414.1,493.3h-88.9c-1.7,0-3-1.4-3-3c0-1.7,1.3-3,3-3h88.9c1.7,0,3,1.4,3,3C417.1,492,415.7,493.3,414.1,493.3
		z"/>
</g>
<g class="st2">
	<path class="st3" d="M50,334.2c-1.6,0-2.9-1.4-2.9-3.2V295h-7.9c-1.6,0-2.9-1.4-2.9-3.2v-28.1H17.4v67c0,1.8-1.3,3.2-2.9,3.2
		c-1.6,0-2.9-1.4-2.9-3.2v-70.2c0-1.8,1.3-3.2,2.9-3.2h24.7c1.6,0,2.9,1.4,2.9,3.2v28.1H50c1.6,0,2.9,1.4,2.9,3.2v39.1
		C52.9,332.7,51.6,334.2,50,334.2z"/>
	<path class="st3" d="M103.3,337H2.9c-1.6,0-2.9-1.5-2.9-3.3c0-1.8,1.3-3.3,2.9-3.3h100.3c1.6,0,2.9,1.5,2.9,3.3
		C106.2,335.6,104.9,337,103.3,337z"/>
	<path class="st3" d="M146.8,371.8c-1.6,0-2.9-1.4-2.9-3.2c0-0.6,0.1-1.1,0.4-1.6l22.1-42.6l-32.1,0.2l-6.8,10.9
		c-0.5,0.9-1.4,1.4-2.4,1.4l-11.5,0c-1.6,0-2.9-1.4-2.9-3.2c0-1.8,1.3-3.2,2.9-3.2l9.9,0l6.8-10.9c0.6-0.9,1.5-1.4,2.4-1.4l38.7-0.3
		c1,0.1,2,0.7,2.5,1.6c0.5,1,0.5,2.2,0,3.2l-24.6,47.5C148.8,371.1,147.9,371.8,146.8,371.8z"/>
	<path class="st3" d="M86.5,300.2h-22c-1.6,0-2.9-1.5-2.9-3.3s1.3-3.3,2.9-3.3h22c1.6,0,2.9,1.5,2.9,3.3S88.1,300.2,86.5,300.2z"/>
	<path class="st3" d="M86.5,312.5h-22c-1.6,0-2.9-1.5-2.9-3.3s1.3-3.3,2.9-3.3h22c1.6,0,2.9,1.5,2.9,3.3S88.1,312.5,86.5,312.5z"/>
	<path class="st3" d="M86.5,324.3h-22c-1.6,0-2.9-1.4-2.9-3.1c0-1.7,1.3-3.1,2.9-3.1h22c1.6,0,2.9,1.4,2.9,3.1
		C89.4,323,88.1,324.3,86.5,324.3z"/>
	<path class="st3" d="M119.6,300.2h-22c-1.6,0-2.9-1.5-2.9-3.3s1.3-3.3,2.9-3.3h22c1.6,0,2.9,1.5,2.9,3.3S121.3,300.2,119.6,300.2z"
		/>
	<path class="st3" d="M119.6,312.5h-22c-1.6,0-2.9-1.5-2.9-3.3s1.3-3.3,2.9-3.3h22c1.6,0,2.9,1.5,2.9,3.3S121.3,312.5,119.6,312.5z"
		/>
	<path class="st3" d="M152.8,300.2h-22c-1.6,0-2.9-1.5-2.9-3.3s1.3-3.3,2.9-3.3h22c1.6,0,2.9,1.5,2.9,3.3S154.4,300.2,152.8,300.2z"
		/>
	<path class="st3" d="M152.8,312.5h-22c-1.6,0-2.9-1.5-2.9-3.3s1.3-3.3,2.9-3.3h22c1.6,0,2.9,1.5,2.9,3.3S154.4,312.5,152.8,312.5z"
		/>
	<path class="st3" d="M119.6,324.3h-22c-1.6,0-2.9-1.4-2.9-3.1c0-1.7,1.3-3.1,2.9-3.1h22c1.6,0,2.9,1.4,2.9,3.1
		C122.6,323,121.3,324.3,119.6,324.3z"/>
	<path class="st3" d="M17.3,375.4c-9.2,0-16.6-8.1-16.6-18.1c0-1.8,1.3-3.2,2.9-3.2c1.6,0,2.9,1.4,2.9,3.2c0,6.4,4.7,11.7,10.6,11.7
		c5.9,0,10.7-5.1,10.8-11.6c0-0.1,0-0.1,0-0.2c0-1.8,1.3-3.2,2.9-3.2c1.6,0,2.9,1.4,2.9,3.2C33.9,367.4,26.5,375.4,17.3,375.4z"/>
	<path class="st3" d="M44.5,375.4c-9.2,0-16.6-8.1-16.6-18.1c0-1.8,1.3-3.2,2.9-3.2c1.6,0,2.9,1.4,2.9,3.2c0,6.4,4.7,11.7,10.6,11.7
		c5.9,0,10.7-5.1,10.8-11.6c0-0.1,0-0.1,0-0.2c0-1.8,1.3-3.2,2.9-3.2c1.6,0,2.9,1.4,2.9,3.2C61.1,367.4,53.7,375.4,44.5,375.4z"/>
	<path class="st3" d="M71.7,375.4c-9.2,0-16.6-8.1-16.6-18.1c0-1.8,1.3-3.2,2.9-3.2c1.6,0,2.9,1.4,2.9,3.2c0,6.4,4.7,11.7,10.6,11.7
		c5.9,0,10.7-5.1,10.8-11.6c0-0.1,0-0.1,0-0.2c0-1.8,1.3-3.2,2.9-3.2c1.6,0,2.9,1.4,2.9,3.2C88.3,367.4,80.9,375.4,71.7,375.4z"/>
	<path class="st3" d="M98.9,375.4c-9.2,0-16.6-8.1-16.6-18.1c0-1.8,1.3-3.2,2.9-3.2c1.6,0,2.9,1.4,2.9,3.2c0,6.4,4.7,11.7,10.6,11.7
		c5.9,0,10.7-5.1,10.8-11.6c0-0.1,0-0.1,0-0.2c0-1.8,1.3-3.2,2.9-3.2c1.6,0,2.9,1.4,2.9,3.2C115.5,367.4,108.1,375.4,98.9,375.4z"/>
	<path class="st3" d="M126.1,375.4c-9.2,0-16.6-8.1-16.6-18.1c0-1.8,1.3-3.2,2.9-3.2c1.6,0,2.9,1.4,2.9,3.2
		c0,6.4,4.7,11.7,10.6,11.7c5.9,0,10.7-5.1,10.8-11.6c0-0.1,0-0.1,0-0.2c0-1.8,1.3-3.2,2.9-3.2c1.6,0,2.9,1.4,2.9,3.2
		C142.7,367.4,135.3,375.4,126.1,375.4z"/>
	<path class="st3" d="M153.3,375.4c-9.2,0-16.6-8.1-16.6-18.1c0-1.8,1.3-3.2,2.9-3.2c1.6,0,2.9,1.4,2.9,3.2
		c0,6.4,4.7,11.7,10.6,11.7c5.9,0,10.7-5.1,10.8-11.6c0-0.1,0-0.1,0-0.2c0-1.8,1.3-3.2,2.9-3.2c1.6,0,2.9,1.4,2.9,3.2
		C169.9,367.4,162.5,375.4,153.3,375.4z"/>
</g>
<path class="st4" d="M200.1,156.5c0-7.6,6.2-13.8,13.8-13.8c7.6,0,13.8,6.2,13.8,13.8H200.1z"/>
<path class="st4" d="M227.7,156.5c0-7.6,6.2-13.8,13.8-13.8c7.6,0,13.8,6.2,13.8,13.8H227.7z"/>
<path class="st4" d="M421.4,201.4c0-7.6,6.2-13.8,13.8-13.8s13.8,6.2,13.8,13.8H421.4z"/>
<path class="st4" d="M449,201.4c0-7.6,6.2-13.8,13.8-13.8s13.8,6.2,13.8,13.8H449z"/>
<path class="st4" d="M157.4,196.6c0-7.6,6.2-13.8,13.8-13.8c7.6,0,13.8,6.2,13.8,13.8H157.4z"/>
<line class="st5" x1="467.9" y1="526.6" x2="239.7" y2="526.7"/>
<line class="st6" x1="236.2" y1="526.6" x2="8" y2="526.7"/>
<path class="st7" d="M235.9,370.6c-9.2,0-16.6-8.1-16.6-18.1c0-1.8,1.3-3.2,2.9-3.2c1.6,0,2.9,1.4,2.9,3.2c0,6.4,4.7,11.7,10.6,11.7
	c5.9,0,10.7-5.1,10.8-11.6c0-0.1,0-0.1,0-0.2c0-1.8,1.3-3.2,2.9-3.2c1.6,0,2.9,1.4,2.9,3.2C252.5,362.5,245.1,370.6,235.9,370.6z"/>
<path class="st7" d="M263.1,370.6c-9.2,0-16.6-8.1-16.6-18.1c0-1.8,1.3-3.2,2.9-3.2c1.6,0,2.9,1.4,2.9,3.2c0,6.4,4.7,11.7,10.6,11.7
	c5.9,0,10.7-5.1,10.8-11.6c0-0.1,0-0.1,0-0.2c0-1.8,1.3-3.2,2.9-3.2c1.6,0,2.9,1.4,2.9,3.2C279.7,362.5,272.3,370.6,263.1,370.6z"/>
<path class="st7" d="M289.8,370.6c-9.2,0-16.6-8.1-16.6-18.1c0-1.8,1.3-3.2,2.9-3.2c1.6,0,2.9,1.4,2.9,3.2c0,6.4,4.7,11.7,10.6,11.7
	c5.9,0,10.7-5.1,10.8-11.6c0-0.1,0-0.1,0-0.2c0-1.8,1.3-3.2,2.9-3.2c1.6,0,2.9,1.4,2.9,3.2C306.4,362.5,298.9,370.6,289.8,370.6z"/>
<path class="st7" d="M317,370.6c-9.2,0-16.6-8.1-16.6-18.1c0-1.8,1.3-3.2,2.9-3.2c1.6,0,2.9,1.4,2.9,3.2c0,6.4,4.7,11.7,10.6,11.7
	c5.9,0,10.7-5.1,10.8-11.6c0-0.1,0-0.1,0-0.2c0-1.8,1.3-3.2,2.9-3.2c1.6,0,2.9,1.4,2.9,3.2C333.5,362.5,326.1,370.6,317,370.6z"/>
<path class="st7" d="M184.9,416.1c-9.2,0-16.6-8.1-16.6-18.1c0-1.8,1.3-3.2,2.9-3.2c1.6,0,2.9,1.4,2.9,3.2c0,6.4,4.7,11.7,10.6,11.7
	c5.9,0,10.7-5.1,10.8-11.6c0-0.1,0-0.1,0-0.2c0-1.8,1.3-3.2,2.9-3.2c1.6,0,2.9,1.4,2.9,3.2C201.5,408,194,416,184.9,416.1z"/>
<path class="st7" d="M212.1,416.1c-9.2,0-16.6-8.1-16.6-18.1c0-1.8,1.3-3.2,2.9-3.2c1.6,0,2.9,1.4,2.9,3.2c0,6.4,4.7,11.7,10.6,11.7
	c5.9,0,10.7-5.1,10.8-11.6c0-0.1,0-0.1,0-0.2c0-1.8,1.3-3.2,2.9-3.2c1.6,0,2.9,1.4,2.9,3.2C228.7,408,221.2,416,212.1,416.1z"/>
</svg>
