<?xml version="1.0" encoding="utf-8"?>
<!-- Generator: Adobe Illustrator 25.3.1, SVG Export Plug-In . SVG Version: 6.00 Build 0)  -->
<svg version="1.1" id="Capa_1" xmlns="http://www.w3.org/2000/svg" xmlns:xlink="http://www.w3.org/1999/xlink" x="0px" y="0px"
	 viewBox="0 0 497 600" style="enable-background:new 0 0 497 600;" xml:space="preserve">
<style type="text/css">
	
		.st0{opacity:0.5;fill-rule:evenodd;clip-rule:evenodd;fill:none;stroke:#2E3185;stroke-width:2;stroke-linecap:round;stroke-linejoin:round;stroke-miterlimit:10;stroke-dasharray:8;}
	.st1{opacity:0.5;}
	.st2{fill:none;stroke:#2E3185;stroke-width:2;stroke-miterlimit:10;}
	.st3{fill-rule:evenodd;clip-rule:evenodd;fill:#2E3185;}
	.st4{fill:none;stroke:#2E3185;stroke-width:5;stroke-miterlimit:10;}
	.st5{fill:#2E3185;}
	.st6{fill:#DE131E;}
	.st7{fill:#FFFFFF;}
</style>
<g>
	<line class="st0" x1="103.2" y1="444.7" x2="7.5" y2="444.9"/>
	<g class="st1">
		<polyline class="st2" points="422.1,253.3 456.8,253.3 456.8,200.3 		"/>
		<polyline class="st2" points="422.1,321.7 474.8,321.7 474.8,348.7 		"/>
		<line class="st2" x1="419.4" y1="288.4" x2="461.8" y2="288.4"/>
		<path class="st3" d="M470.1,289.5h9.5v-6.6h-9.5V289.5z M484.5,301.9h-19.5c-2.7,0-5-2.8-5-6.2v-18.9c0-3.4,2.2-6.2,5-6.2h19.5
			c2.7,0,5,2.8,5,6.2v18.9C489.5,299.1,487.3,301.9,484.5,301.9z"/>
		<path class="st3" d="M452.1,190.6h9.5V184h-9.5V190.6z M466.5,202.9H447c-2.7,0-5-2.8-5-6.2v-18.9c0-3.4,2.2-6.2,5-6.2h19.5
			c2.7,0,5,2.8,5,6.2v18.9C471.5,200.2,469.2,202.9,466.5,202.9z"/>
		<path class="st3" d="M470.1,365.6h9.5V359h-9.5V365.6z M484.5,378h-19.5c-2.7,0-5-2.8-5-6.2v-18.9c0-3.4,2.2-6.2,5-6.2h19.5
			c2.7,0,5,2.8,5,6.2v18.9C489.5,375.2,487.3,378,484.5,378z"/>
		<polyline class="st4" points="143.3,167.2 143.3,149.5 355.1,149.5 355.1,167.2 		"/>
		<polyline class="st4" points="342,274.5 342,393.9 342,398.9 419.4,398.9 419.4,200.1 121.9,200.1 121.9,398.9 145.1,398.9 
			145.1,250.6 342,250.6 		"/>
		<rect x="111.9" y="439.1" class="st5" width="377.6" height="11.5"/>
		<rect x="111.9" y="417.4" class="st5" width="377.6" height="11.5"/>
		<rect x="263.8" y="370" class="st5" width="35.7" height="37.2"/>
		<rect x="263.8" y="327.2" class="st5" width="35.7" height="37.2"/>
		<rect x="226.2" y="370" class="st5" width="35.7" height="37.2"/>
		<rect x="189.2" y="370" class="st5" width="35.7" height="37.2"/>
		<rect x="151.6" y="370" class="st5" width="35.7" height="37.2"/>
		<rect x="151.5" y="325.1" class="st5" width="35.7" height="37.2"/>
		<rect x="151.5" y="280.9" class="st5" width="35.7" height="37.2"/>
		<path class="st6" d="M261.3,327.2h-34.5c-0.3,0-0.6,0.3-0.6,0.6v36c0,0.3,0.3,0.6,0.6,0.6h34.5c0.3,0,0.6-0.3,0.6-0.6v-36
			C261.9,327.5,261.6,327.2,261.3,327.2z"/>
		<path class="st7" d="M174,294.7h-9.3c-0.1,0-0.2,0.1-0.2,0.2v9.3c0,0.1,0.1,0.2,0.2,0.2h9.3c0.1,0,0.2-0.1,0.2-0.2v-9.3
			C174.1,294.8,174.1,294.7,174,294.7z"/>
		<path class="st7" d="M174,338.9h-9.3c-0.1,0-0.2,0.1-0.2,0.2v9.3c0,0.1,0.1,0.2,0.2,0.2h9.3c0.1,0,0.2-0.1,0.2-0.2V339
			C174.1,338.9,174.1,338.9,174,338.9z"/>
		<path class="st7" d="M248.7,341h-9.3c-0.1,0-0.2,0.1-0.2,0.2v9.3c0,0.1,0.1,0.2,0.2,0.2h9.3c0.1,0,0.2-0.1,0.2-0.2v-9.3
			C248.9,341,248.8,341,248.7,341z"/>
		<path class="st7" d="M174,383.7h-9.3c-0.1,0-0.2,0.1-0.2,0.2v9.3c0,0.1,0.1,0.2,0.2,0.2h9.3c0.1,0,0.2-0.1,0.2-0.2v-9.3
			C174.1,383.8,174.1,383.7,174,383.7z"/>
		<path class="st7" d="M211.7,383.7h-9.3c-0.1,0-0.2,0.1-0.2,0.2v9.3c0,0.1,0.1,0.2,0.2,0.2h9.3c0.1,0,0.2-0.1,0.2-0.2v-9.3
			C211.9,383.8,211.8,383.7,211.7,383.7z"/>
		<path class="st7" d="M249,383.7h-9.3c-0.1,0-0.2,0.1-0.2,0.2v9.3c0,0.1,0.1,0.2,0.2,0.2h9.3c0.1,0,0.2-0.1,0.2-0.2v-9.3
			C249.2,383.8,249.1,383.7,249,383.7z"/>
		<path class="st7" d="M286.3,383.7H277c-0.1,0-0.2,0.1-0.2,0.2v9.3c0,0.1,0.1,0.2,0.2,0.2h9.3c0.1,0,0.2-0.1,0.2-0.2v-9.3
			C286.5,383.8,286.4,383.7,286.3,383.7z"/>
		<path class="st7" d="M286.3,341H277c-0.1,0-0.2,0.1-0.2,0.2v9.3c0,0.1,0.1,0.2,0.2,0.2h9.3c0.1,0,0.2-0.1,0.2-0.2v-9.3
			C286.5,341,286.4,341,286.3,341z"/>
	</g>
</g>
</svg>
