<?xml version="1.0" encoding="utf-8"?>
<!-- Generator: Adobe Illustrator 25.3.1, SVG Export Plug-In . SVG Version: 6.00 Build 0)  -->
<svg version="1.1" id="Capa_1" xmlns="http://www.w3.org/2000/svg" xmlns:xlink="http://www.w3.org/1999/xlink" x="0px" y="0px"
	 viewBox="0 0 36 36" style="enable-background:new 0 0 36 36;" xml:space="preserve">
<style type="text/css">
	.st0{fill:#2E318A;}
</style>
<g>
	<path class="st0" d="M32.44,17.72h0.14c0.55,0,1.01-0.46,1.01-1.01c0-0.55-0.46-1-1.01-1h-5.01c0.01-0.07,0.01-0.15,0.01-0.22
		c0-1.69-1.38-3.07-3.08-3.07c-1.71,0-3.08,1.37-3.08,3.07c0,0.08,0,0.15,0.01,0.22h-5.18c-0.55,0-1,0.45-1,1
		c0,0.55,0.45,1.01,1,1.01h0.21l-3.46,10.29v0.01c0,1.15,0.4,2.22,1.08,3.06c0.9,1.13,2.29,1.84,3.84,1.84
		c1.57,0,2.96-0.73,3.86-1.86c0.67-0.83,1.07-1.89,1.07-3.03v-0.01l-3.56-10.29h10.34l-3.46,10.29v0.01c0,1.15,0.41,2.22,1.08,3.06
		c0.9,1.13,2.29,1.84,3.84,1.84c1.57,0,2.96-0.73,3.86-1.86C35.6,30.22,36,29.16,36,28.02v-0.01L32.44,17.72z M20.72,28.01H15.1
		l2.77-8.21L20.72,28.01z M28.26,28.01l2.77-8.21l2.84,8.21H28.26z"/>
	<path class="st0" d="M15.63,12.9l-8.43,0c-0.57,0-1.04-0.47-1.04-1.04v0c0-0.57,0.47-1.04,1.04-1.04h8.43
		c0.57,0,1.04,0.47,1.04,1.04v0C16.67,12.44,16.2,12.9,15.63,12.9z"/>
	<path class="st0" d="M12.05,19.8H7.2c-0.57,0-1.04-0.47-1.04-1.04v0c0-0.57,0.47-1.04,1.04-1.04h4.85c0.57,0,1.04,0.47,1.04,1.04v0
		C13.09,19.33,12.62,19.8,12.05,19.8z"/>
	<path class="st0" d="M10.73,26.69l-3.53,0c-0.57,0-1.04-0.47-1.04-1.04v0c0-0.57,0.47-1.04,1.04-1.04h3.53
		c0.57,0,1.04,0.47,1.04,1.04v0C11.77,26.22,11.31,26.69,10.73,26.69z"/>
	<path class="st0" d="M32.17,3.77v9.56c0,0.38-0.31,0.7-0.69,0.7h-0.59c-0.38,0-0.7-0.32-0.7-0.7V5.05H1.98v25.89h8.94
		c0.39,0,0.7,0.32,0.7,0.7v0.58c0,0.39-0.31,0.7-0.7,0.7H0.7c-0.38,0-0.7-0.31-0.7-0.7V3.77c0-0.38,0.32-0.69,0.7-0.69h30.78
		C31.86,3.08,32.17,3.39,32.17,3.77z"/>
</g>
</svg>
