<?xml version="1.0" encoding="utf-8"?>
<!-- Generator: Adobe Illustrator 25.3.1, SVG Export Plug-In . SVG Version: 6.00 Build 0)  -->
<svg version="1.1" id="Capa_1" xmlns="http://www.w3.org/2000/svg" xmlns:xlink="http://www.w3.org/1999/xlink" x="0px" y="0px"
	 viewBox="0 0 36 36" style="enable-background:new 0 0 36 36;" xml:space="preserve">
<style type="text/css">
	.st0{fill-rule:evenodd;clip-rule:evenodd;fill:#2E318A;}
</style>
<g>
	<path class="st0" d="M31.68,31.74H13.3c-0.36,0-0.65-0.28-0.65-0.63c0-0.35,0.29-0.63,0.65-0.63h18.38c0.36,0,0.65,0.28,0.65,0.63
		C32.33,31.46,32.04,31.74,31.68,31.74z"/>
	<path class="st0" d="M35.31,6.4 M1.71,18.28l5.08,4.97L28.14,12c4.85-2.61,6.24-4.57,6.54-5.75c0.06-0.31-0.01-0.38-0.04-0.4
		c-0.17-0.18-1.07-0.65-5.5,0.45l-4.8,2.43l-2.73,1.47c-0.14,0.08-0.31,0.1-0.46,0.05L8.31,6.64L6.35,7.81l8.54,6.26
		c0.29,0.21,0.35,0.63,0.15,0.92c-0.05,0.08-0.12,0.14-0.18,0.18l-6.4,4.07c-0.15,0.1-0.34,0.13-0.52,0.07l-5.31-1.6L1.71,18.28z
		 M6.67,24.72c-0.16,0-0.32-0.06-0.44-0.18l-6.02-5.9c-0.26-0.25-0.27-0.67-0.03-0.94c0.04-0.04,0.09-0.08,0.14-0.11l1.9-1.16
		c0.15-0.09,0.33-0.12,0.5-0.06l5.31,1.6l5.33-3.4L4.78,8.28C4.5,8.07,4.43,7.66,4.63,7.35c0.05-0.08,0.12-0.14,0.2-0.19L7.9,5.35
		c0.14-0.09,0.32-0.11,0.48-0.06l12.85,3.6l2.52-1.35l4.88-2.47c0.05-0.02,0.09-0.04,0.14-0.05c4.86-1.22,6.15-0.75,6.77-0.13
		c0.41,0.44,0.56,1.06,0.39,1.65l-0.01,0.04c-0.53,2.12-2.88,4.28-7.2,6.6L6.96,24.65C6.87,24.69,6.77,24.72,6.67,24.72z"/>
</g>
</svg>
