<?xml version="1.0" encoding="utf-8"?>
<!-- Generator: Adobe Illustrator 25.3.1, SVG Export Plug-In . SVG Version: 6.00 Build 0)  -->
<svg version="1.1" id="Capa_1" xmlns="http://www.w3.org/2000/svg" xmlns:xlink="http://www.w3.org/1999/xlink" x="0px" y="0px"
	 viewBox="0 0 36 36" style="enable-background:new 0 0 36 36;" xml:space="preserve">
<style type="text/css">
	.st0{fill:none;stroke:#2E318A;stroke-width:2;stroke-miterlimit:10;}
	.st1{fill-rule:evenodd;clip-rule:evenodd;fill:#2E318A;}
	.st2{fill:none;stroke:#2E318A;stroke-width:1.7;stroke-miterlimit:10;}
	.st3{fill:#2E318A;}
	.st4{fill:#E3131E;}
	.st5{fill:#FFFFFF;}
</style>
<g>
	<polyline class="st0" points="29.57,13.55 32.88,13.55 32.88,8.49 	"/>
	<polyline class="st0" points="29.57,20.07 34.6,20.07 34.6,22.64 	"/>
	<line class="st0" x1="29.32" y1="16.9" x2="33.36" y2="16.9"/>
	<path class="st1" d="M34.15,17h0.9v-0.63h-0.9V17z M35.53,18.18h-1.86c-0.26,0-0.47-0.27-0.47-0.59v-1.8
		c0-0.33,0.21-0.59,0.47-0.59h1.86c0.26,0,0.47,0.27,0.47,0.59v1.8C36,17.92,35.79,18.18,35.53,18.18z"/>
	<path class="st1" d="M32.43,7.57h0.9V6.94h-0.9V7.57z M33.81,8.75h-1.86c-0.26,0-0.47-0.27-0.47-0.59v-1.8
		c0-0.33,0.21-0.59,0.47-0.59h1.86c0.26,0,0.47,0.27,0.47,0.59v1.8C34.28,8.48,34.07,8.75,33.81,8.75z"/>
	<path class="st1" d="M34.15,24.26h0.9v-0.63h-0.9V24.26z M35.53,25.43h-1.86c-0.26,0-0.47-0.27-0.47-0.59v-1.8
		c0-0.33,0.21-0.59,0.47-0.59h1.86c0.26,0,0.47,0.27,0.47,0.59v1.8C36,25.17,35.79,25.43,35.53,25.43z"/>
	<polyline class="st2" points="2.99,5.34 2.99,3.65 23.18,3.65 23.18,5.34 	"/>
	<polyline class="st2" points="21.94,15.57 21.94,26.96 21.94,27.43 29.32,27.43 29.32,8.47 0.95,8.47 0.95,27.43 3.17,27.43 
		3.17,13.29 21.94,13.29 	"/>
	<rect y="31.26" class="st3" width="36" height="1.09"/>
	<rect y="29.2" class="st3" width="36" height="1.09"/>
	<rect x="14.48" y="24.71" class="st3" width="3.4" height="3.56"/>
	<rect x="14.48" y="20.61" class="st3" width="3.4" height="3.56"/>
	<rect x="10.9" y="24.71" class="st3" width="3.4" height="3.56"/>
	<rect x="7.37" y="24.71" class="st3" width="3.4" height="3.56"/>
	<rect x="3.79" y="24.71" class="st3" width="3.4" height="3.56"/>
	<rect x="3.77" y="20.41" class="st3" width="3.4" height="3.56"/>
	<rect x="3.77" y="16.18" class="st3" width="3.4" height="3.56"/>
	<path class="st4" d="M13.71,20.61h-2.23c-0.32,0-0.58,0.26-0.58,0.58v2.39c0,0.32,0.26,0.58,0.58,0.58h2.23
		c0.32,0,0.58-0.26,0.58-0.58V21.2C14.3,20.87,14.04,20.61,13.71,20.61z"/>
	<path class="st5" d="M5.75,17.5H5.19c-0.1,0-0.18,0.08-0.18,0.18v0.56c0,0.1,0.08,0.18,0.18,0.18h0.56c0.1,0,0.18-0.08,0.18-0.18
		v-0.56C5.93,17.58,5.85,17.5,5.75,17.5z"/>
	<path class="st5" d="M5.75,21.73H5.19c-0.1,0-0.18,0.08-0.18,0.18v0.56c0,0.1,0.08,0.18,0.18,0.18h0.56c0.1,0,0.18-0.08,0.18-0.18
		v-0.56C5.93,21.81,5.85,21.73,5.75,21.73z"/>
	<path class="st5" d="M12.88,21.93h-0.56c-0.1,0-0.18,0.08-0.18,0.18l0,0.56c0,0.1,0.08,0.18,0.18,0.18h0.56
		c0.1,0,0.18-0.08,0.18-0.18v-0.56C13.06,22.01,12.98,21.93,12.88,21.93z"/>
	<path class="st5" d="M5.75,26.03H5.19c-0.1,0-0.18,0.08-0.18,0.18v0.56c0,0.1,0.08,0.18,0.18,0.18h0.56c0.1,0,0.18-0.08,0.18-0.18
		v-0.56C5.93,26.11,5.85,26.03,5.75,26.03z"/>
	<path class="st5" d="M9.35,26.03H8.79c-0.1,0-0.18,0.08-0.18,0.18v0.56c0,0.1,0.08,0.18,0.18,0.18h0.56c0.1,0,0.18-0.08,0.18-0.18
		v-0.56C9.53,26.11,9.45,26.03,9.35,26.03z"/>
	<path class="st5" d="M12.9,26.03h-0.56c-0.1,0-0.18,0.08-0.18,0.18v0.56c0,0.1,0.08,0.18,0.18,0.18h0.56c0.1,0,0.18-0.08,0.18-0.18
		v-0.56C13.09,26.11,13.01,26.03,12.9,26.03z"/>
	<path class="st5" d="M16.46,26.03H15.9c-0.1,0-0.18,0.08-0.18,0.18v0.56c0,0.1,0.08,0.18,0.18,0.18h0.56c0.1,0,0.18-0.08,0.18-0.18
		v-0.56C16.64,26.11,16.56,26.03,16.46,26.03z"/>
	<path class="st5" d="M16.46,21.93H15.9c-0.1,0-0.18,0.08-0.18,0.18v0.56c0,0.1,0.08,0.18,0.18,0.18h0.56c0.1,0,0.18-0.08,0.18-0.18
		v-0.56C16.64,22.01,16.56,21.93,16.46,21.93z"/>
</g>
</svg>
