<?xml version="1.0" encoding="utf-8"?>
<!-- Generator: Adobe Illustrator 25.3.1, SVG Export Plug-In . SVG Version: 6.00 Build 0)  -->
<svg version="1.1" id="Capa_1" xmlns="http://www.w3.org/2000/svg" xmlns:xlink="http://www.w3.org/1999/xlink" x="0px" y="0px"
	 viewBox="0 0 36 36" style="enable-background:new 0 0 36 36;" xml:space="preserve">
<style type="text/css">
	.st0{fill-rule:evenodd;clip-rule:evenodd;fill:#2E318A;}
</style>
<g>
	<path class="st0" d="M10.32,21.67c-0.34,0-0.61-0.3-0.61-0.66v-7.42H8.08c-0.33,0-0.6-0.3-0.6-0.66V7.13H3.6v13.83
		c0,0.37-0.27,0.66-0.61,0.66c-0.33,0-0.6-0.3-0.6-0.66V6.47c0-0.37,0.27-0.66,0.6-0.66h5.09c0.33,0,0.6,0.3,0.6,0.66v5.79h1.64
		c0.33,0,0.6,0.3,0.6,0.67v8.08C10.92,21.37,10.65,21.67,10.32,21.67z"/>
	<path class="st0" d="M21.32,22.26H0.6c-0.33,0-0.6-0.3-0.6-0.68c0-0.37,0.27-0.68,0.6-0.68h20.72c0.33,0,0.6,0.3,0.6,0.68
		C21.92,21.96,21.65,22.26,21.32,22.26z"/>
	<path class="st0" d="M30.31,29.44c-0.33,0-0.6-0.3-0.6-0.67c0-0.12,0.03-0.23,0.08-0.33l4.56-8.8l-6.63,0.04l-1.4,2.26
		c-0.11,0.18-0.29,0.29-0.49,0.29l-2.37,0c-0.33,0-0.6-0.3-0.6-0.67s0.27-0.67,0.6-0.67l2.05,0l1.4-2.26
		c0.12-0.18,0.3-0.29,0.5-0.29l7.99-0.05c0.21,0.02,0.4,0.14,0.53,0.33c0.11,0.21,0.11,0.46,0.01,0.67l-5.08,9.81
		C30.73,29.31,30.53,29.44,30.31,29.44z"/>
	<path class="st0" d="M17.85,14.67H13.3c-0.34,0-0.61-0.3-0.61-0.68s0.27-0.68,0.61-0.68h4.55c0.34,0,0.61,0.3,0.61,0.68
		S18.19,14.67,17.85,14.67z"/>
	<path class="st0" d="M17.85,17.2H13.3c-0.34,0-0.61-0.3-0.61-0.68s0.27-0.68,0.61-0.68h4.55c0.34,0,0.61,0.3,0.61,0.68
		S18.19,17.2,17.85,17.2z"/>
	<path class="st0" d="M17.85,19.65H13.3c-0.34,0-0.61-0.28-0.61-0.63s0.27-0.63,0.61-0.63h4.55c0.34,0,0.61,0.28,0.61,0.63
		S18.19,19.65,17.85,19.65z"/>
	<path class="st0" d="M24.7,14.67h-4.55c-0.34,0-0.61-0.3-0.61-0.68s0.27-0.68,0.61-0.68h4.55c0.34,0,0.61,0.3,0.61,0.68
		S25.04,14.67,24.7,14.67z"/>
	<path class="st0" d="M24.7,17.2h-4.55c-0.34,0-0.61-0.3-0.61-0.68s0.27-0.68,0.61-0.68h4.55c0.34,0,0.61,0.3,0.61,0.68
		S25.04,17.2,24.7,17.2z"/>
	<path class="st0" d="M31.55,14.67h-4.55c-0.34,0-0.61-0.3-0.61-0.68s0.27-0.68,0.61-0.68h4.55c0.34,0,0.61,0.3,0.61,0.68
		S31.89,14.67,31.55,14.67z"/>
	<path class="st0" d="M31.55,17.2h-4.55c-0.34,0-0.61-0.3-0.61-0.68s0.27-0.68,0.61-0.68h4.55c0.34,0,0.61,0.3,0.61,0.68
		S31.89,17.2,31.55,17.2z"/>
	<path class="st0" d="M24.7,19.65h-4.55c-0.34,0-0.61-0.28-0.61-0.63s0.27-0.63,0.61-0.63h4.55c0.34,0,0.61,0.28,0.61,0.63
		S25.04,19.65,24.7,19.65z"/>
	<path class="st0" d="M3.58,30.19c-1.89,0-3.42-1.67-3.42-3.73c0-0.36,0.27-0.66,0.61-0.66c0.33,0,0.6,0.3,0.6,0.66
		c-0.01,1.33,0.97,2.41,2.19,2.42c1.22,0.01,2.22-1.06,2.23-2.39c0-0.01,0-0.02,0-0.04c0-0.36,0.27-0.66,0.6-0.66
		c0.34,0,0.61,0.3,0.61,0.66C7,28.53,5.47,30.19,3.58,30.19z"/>
	<path class="st0" d="M9.19,30.19c-1.89,0-3.42-1.67-3.42-3.73c0-0.36,0.27-0.66,0.61-0.66c0.33,0,0.6,0.3,0.6,0.66
		c-0.01,1.33,0.97,2.41,2.19,2.42c1.22,0.01,2.22-1.06,2.23-2.39c0-0.01,0-0.02,0-0.04c0-0.36,0.27-0.66,0.6-0.66
		c0.34,0,0.61,0.3,0.61,0.66C12.62,28.53,11.08,30.19,9.19,30.19z"/>
	<path class="st0" d="M14.81,30.19c-1.89,0-3.42-1.67-3.42-3.73c0-0.36,0.27-0.66,0.61-0.66c0.33,0,0.6,0.3,0.6,0.66
		c-0.01,1.33,0.97,2.41,2.19,2.42c1.22,0.01,2.22-1.06,2.23-2.39c0-0.01,0-0.02,0-0.04c0-0.36,0.27-0.66,0.6-0.66
		c0.34,0,0.61,0.3,0.61,0.66C18.23,28.53,16.7,30.19,14.81,30.19z"/>
	<path class="st0" d="M20.42,30.19c-1.89,0-3.42-1.67-3.42-3.73c0-0.36,0.27-0.66,0.61-0.66c0.33,0,0.6,0.3,0.6,0.66
		c-0.01,1.33,0.97,2.41,2.19,2.42c1.22,0.01,2.22-1.06,2.23-2.39c0-0.01,0-0.02,0-0.04c0-0.36,0.27-0.66,0.6-0.66
		c0.34,0,0.61,0.3,0.61,0.66C23.85,28.53,22.31,30.19,20.42,30.19z"/>
	<path class="st0" d="M26.04,30.19c-1.89,0-3.42-1.67-3.42-3.73c0-0.36,0.27-0.66,0.61-0.66c0.33,0,0.6,0.3,0.6,0.66
		c-0.01,1.33,0.97,2.41,2.19,2.42c1.22,0.01,2.22-1.06,2.23-2.39c0-0.01,0-0.02,0-0.04c0-0.36,0.27-0.66,0.6-0.66
		c0.34,0,0.61,0.3,0.61,0.66C29.46,28.53,27.93,30.19,26.04,30.19z"/>
	<path class="st0" d="M31.65,30.19c-1.89,0-3.42-1.67-3.42-3.73c0-0.36,0.27-0.66,0.61-0.66c0.33,0,0.6,0.3,0.6,0.66
		c-0.01,1.33,0.97,2.41,2.19,2.42c1.22,0.01,2.22-1.06,2.23-2.39c0-0.01,0-0.02,0-0.04c0-0.36,0.27-0.66,0.6-0.66
		c0.34,0,0.61,0.3,0.61,0.66C35.08,28.53,33.55,30.19,31.65,30.19z"/>
</g>
</svg>
