<?xml version="1.0" encoding="utf-8"?>
<!-- Generator: Adobe Illustrator 25.3.1, SVG Export Plug-In . SVG Version: 6.00 Build 0)  -->
<svg version="1.1" id="Capa_1" xmlns="http://www.w3.org/2000/svg" xmlns:xlink="http://www.w3.org/1999/xlink" x="0px" y="0px"
	 viewBox="0 0 36 36" style="enable-background:new 0 0 36 36;" xml:space="preserve">
<style type="text/css">
	.st0{fill:#2E318A;}
</style>
<path class="st0" d="M36,25.63c-0.26,0.74-0.79,1.03-1.53,0.97c-0.29-0.02-0.58,0-0.91,0c0.18,1.46-0.28,2.64-1.39,3.53
	c-0.72,0.58-1.55,0.83-2.46,0.75c-1.03-0.09-1.87-0.57-2.52-1.4c-0.65-0.83-0.88-1.78-0.73-2.86c-5.24,0-10.44,0-15.69,0
	c0.17,1.49-0.32,2.71-1.5,3.6c-0.74,0.55-1.59,0.76-2.49,0.65c-1.79-0.21-3.48-1.98-3.11-4.38c-0.55-0.09-1.09-0.19-1.64-0.28
	c-0.31-0.05-0.63-0.1-0.94-0.15C0.4,25.95,0.01,25.48,0,24.77C0,23.43,0,22.08,0,20.74c0-4.72,0-9.43,0-14.15
	C0,5.54,0.43,5.1,1.45,5.1c7.03,0,14.06,0,21.09,0c1.03,0,1.45,0.43,1.45,1.48c0,4.67,0,9.34,0,14c0,0.14,0,0.28,0,0.46
	c0.2,0,0.38,0,0.61,0c0-0.13,0-0.25,0-0.38c0-2.24,0-4.49,0-6.73c0-0.65,0.18-0.84,0.81-0.84c2.14,0,4.29,0.01,6.43-0.01
	c0.64,0,1.06,0.27,1.34,0.85c0.86,1.78,1.74,3.56,2.6,5.34c0.08,0.17,0.14,0.35,0.21,0.53C36,21.74,36,23.69,36,25.63z M22.77,21.06
	c0-4.93,0-9.82,0-14.7c-7.2,0-14.38,0-21.54,0c0,4.92,0,9.8,0,14.7C8.42,21.06,15.58,21.06,22.77,21.06z M1.21,24.85
	c0.92,0.15,1.81,0.3,2.7,0.41c0.12,0.02,0.31-0.12,0.4-0.24c1.45-2,4.42-1.97,5.81,0.07c0.14,0.2,0.27,0.28,0.51,0.28
	c4.55-0.01,9.09,0,13.64,0c0.1,0,0.2-0.02,0.31-0.02c0-1.02,0-2.01,0-3.01c-7.8,0-15.58,0-23.38,0C1.21,23.18,1.21,23.99,1.21,24.85
	z M32.63,15.54c-0.17-0.35-0.32-0.63-0.44-0.93c-0.09-0.23-0.22-0.31-0.47-0.31c-1.85,0.01-3.7,0.01-5.55,0.01
	c-0.11,0-0.22,0.01-0.33,0.02c0,3.69,0,7.34,0,11.03c0.31,0,0.6,0.02,0.89-0.01c0.11-0.01,0.23-0.1,0.3-0.19
	c1.54-2.19,4.41-2.19,5.98,0.01c0.06,0.08,0.18,0.18,0.27,0.18c0.5,0.02,1,0.01,1.52,0.01c0-1.65,0-3.26,0-4.91
	c-0.13,0-0.24,0-0.36,0c-1.79,0-3.59,0-5.38,0c-0.65,0-0.85-0.19-0.85-0.85c0-1.07,0-2.14,0-3.2c0-0.66,0.19-0.86,0.84-0.86
	C30.21,15.54,31.38,15.54,32.63,15.54z M9.59,27.21c-0.01-1.36-1.07-2.45-2.39-2.45c-1.31,0-2.4,1.12-2.39,2.46
	c0.01,1.34,1.09,2.44,2.4,2.44C8.52,29.66,9.6,28.55,9.59,27.21z M27.61,27.17c-0.03,1.35,1.02,2.47,2.34,2.5
	c1.32,0.03,2.43-1.08,2.45-2.44c0.01-1.32-1.06-2.43-2.36-2.46C28.72,24.74,27.65,25.8,27.61,27.17z M34.42,19.2
	c-0.39-0.8-0.76-1.57-1.15-2.33c-0.03-0.07-0.17-0.1-0.26-0.1c-1.15-0.01-2.29,0-3.44,0c-0.05,0-0.11,0.02-0.15,0.03
	c0,0.81,0,1.59,0,2.4C31.08,19.2,32.72,19.2,34.42,19.2z"/>
</svg>
