<?xml version="1.0" encoding="utf-8"?>
<!-- Generator: Adobe Illustrator 25.3.1, SVG Export Plug-In . SVG Version: 6.00 Build 0)  -->
<svg version="1.1" id="Capa_1" xmlns="http://www.w3.org/2000/svg" xmlns:xlink="http://www.w3.org/1999/xlink" x="0px" y="0px"
	 viewBox="0 0 36 36" style="enable-background:new 0 0 36 36;" xml:space="preserve">
<style type="text/css">
	.st0{fill-rule:evenodd;clip-rule:evenodd;fill:none;stroke:#2E318A;stroke-miterlimit:10;}
	.st1{fill-rule:evenodd;clip-rule:evenodd;fill:#2E318A;}
</style>
<g>
	<path class="st0" d="M2.79,29.69l-1.5-7.14c-0.01-0.19,0.14-0.36,0.33-0.36h33.13c0.18,0,0.31,0.16,0.28,0.33
		c-0.2,0.97-1.62,5.71-3.57,6.74"/>
	<path class="st0" d="M26.11,21.53h-3.89v-3.43c0-0.1,0.08-0.19,0.19-0.19h3.71V21.53z"/>
	<path class="st0" d="M30.01,21.53h-3.89v-3.62h3.69c0.11,0,0.2,0.09,0.2,0.2V21.53z"/>
	<path class="st0" d="M27.87,17.92h-3.64c-0.07,0-0.13-0.06-0.13-0.13v-3.35c0-0.07,0.06-0.13,0.13-0.13h3.64
		c0.07,0,0.13,0.06,0.13,0.13v3.35C28,17.86,27.95,17.92,27.87,17.92z"/>
	<path class="st0" d="M6.37,22.19h-2.5c-0.09,0-0.16-0.07-0.16-0.16v-2.14c0-0.09,0.07-0.16,0.16-0.16h2.5V22.19z"/>
	<path class="st0" d="M8.87,22.19H6.37v-2.47h2.49c0.09,0,0.16,0.07,0.16,0.16v2.14C9.03,22.12,8.96,22.19,8.87,22.19z"/>
	<path class="st0" d="M7.54,19.72H5.21c-0.09,0-0.16-0.07-0.16-0.16v-2.13c0-0.09,0.07-0.16,0.16-0.16h2.33
		c0.09,0,0.16,0.07,0.16,0.16v2.13C7.7,19.65,7.63,19.72,7.54,19.72z"/>
	<path class="st0" d="M14.26,22.2v-3.98h-2.14v-5.63L5.73,7.65c0,0-1.12-0.8-0.46-1.56s1.58,0.2,1.58,0.2l8.39,6.23l4.33-0.03
		c0.26,0,0.47,0.21,0.47,0.47v5.26l-2.47-0.03v4.01"/>
	<line class="st0" x1="5.21" y1="6.85" x2="5.21" y2="11.99"/>
	<path class="st0" d="M7.05,12.9c0,0.78-0.63,1.41-1.4,1.41s-1.4-0.63-1.4-1.41c0-0.78,0.63-1.41,1.4-1.41"/>
	<path class="st1" d="M8.01,30.21c-1.68,0-3.04-1.49-3.04-3.34c0-0.33,0.24-0.59,0.54-0.59c0.3,0,0.54,0.26,0.54,0.59
		C6.04,28.06,6.91,29.03,8,29.04c1.09,0.01,1.97-0.95,1.98-2.14c0-0.01,0-0.02,0-0.03c0-0.33,0.24-0.59,0.54-0.59
		c0.3,0,0.54,0.26,0.54,0.59C11.05,28.71,9.69,30.2,8.01,30.21z"/>
	<path class="st1" d="M3.04,30.21C1.36,30.2,0,28.71,0,26.87c0-0.33,0.24-0.59,0.54-0.59c0.3,0,0.54,0.26,0.54,0.59
		c-0.01,1.19,0.87,2.16,1.95,2.17c1.09,0.01,1.97-0.95,1.98-2.14c0-0.01,0-0.02,0-0.03c0-0.33,0.24-0.59,0.54-0.59
		c0.3,0,0.54,0.26,0.54,0.59C6.08,28.71,4.72,30.2,3.04,30.21z"/>
	<path class="st1" d="M13,30.21c-1.68,0-3.04-1.49-3.04-3.34c0-0.33,0.24-0.59,0.54-0.59c0.3,0,0.54,0.26,0.54,0.59
		c-0.01,1.19,0.87,2.16,1.95,2.17c1.09,0.01,1.97-0.95,1.98-2.14c0-0.01,0-0.02,0-0.03c0-0.33,0.24-0.59,0.54-0.59
		c0.3,0,0.54,0.26,0.54,0.59C16.04,28.71,14.68,30.2,13,30.21z"/>
	<path class="st1" d="M17.99,30.21c-1.68,0-3.04-1.49-3.04-3.34c0-0.33,0.24-0.59,0.54-0.59c0.3,0,0.54,0.26,0.54,0.59
		c-0.01,1.19,0.87,2.16,1.95,2.17c1.09,0.01,1.97-0.95,1.98-2.14c0-0.01,0-0.02,0-0.03c0-0.33,0.24-0.59,0.54-0.59
		c0.3,0,0.54,0.26,0.54,0.59C21.03,28.71,19.67,30.2,17.99,30.21z"/>
	<path class="st1" d="M22.98,30.21c-1.68,0-3.04-1.49-3.04-3.34c0-0.33,0.24-0.59,0.54-0.59c0.3,0,0.54,0.26,0.54,0.59
		c-0.01,1.19,0.87,2.16,1.95,2.17c1.09,0.01,1.97-0.95,1.98-2.14c0-0.01,0-0.02,0-0.03c0-0.33,0.24-0.59,0.54-0.59
		c0.3,0,0.54,0.26,0.54,0.59C26.02,28.71,24.66,30.2,22.98,30.21z"/>
	<path class="st1" d="M27.97,30.21c-1.68,0-3.04-1.49-3.04-3.34c0-0.33,0.24-0.59,0.54-0.59c0.3,0,0.54,0.26,0.54,0.59
		c-0.01,1.19,0.87,2.16,1.95,2.17c1.09,0.01,1.97-0.95,1.98-2.14c0-0.01,0-0.02,0-0.03c0-0.33,0.24-0.59,0.54-0.59
		c0.3,0,0.54,0.26,0.54,0.59C31.01,28.71,29.65,30.2,27.97,30.21z"/>
	<path class="st1" d="M32.96,30.21c-1.68,0-3.04-1.49-3.04-3.34c0-0.33,0.24-0.59,0.54-0.59c0.3,0,0.54,0.26,0.54,0.59
		c-0.01,1.19,0.87,2.16,1.95,2.17c1.09,0.01,1.97-0.95,1.98-2.14c0-0.01,0-0.02,0-0.03c0-0.33,0.24-0.59,0.54-0.59
		c0.3,0,0.54,0.26,0.54,0.59C36,28.71,34.64,30.2,32.96,30.21z"/>
</g>
</svg>
