<?xml version="1.0" encoding="utf-8"?>
<!-- Generator: Adobe Illustrator 25.3.1, SVG Export Plug-In . SVG Version: 6.00 Build 0)  -->
<svg version="1.1" id="Capa_1" xmlns="http://www.w3.org/2000/svg" xmlns:xlink="http://www.w3.org/1999/xlink" x="0px" y="0px"
	 viewBox="0 0 36 36" style="enable-background:new 0 0 36 36;" xml:space="preserve">
<style type="text/css">
	.st0{fill:#2E318A;}
</style>
<g>
	<g>
		<path class="st0" d="M26.83,9.84c-0.01-1.39-0.64-2.28-1.93-2.76c-3.46-1.27-6.92-2.53-10.38-3.8c-0.74-0.27-1.47-0.26-2.21,0.01
			C8.87,4.56,5.43,5.81,1.99,7.08C0.65,7.57,0.03,8.43,0.01,9.86c-0.02,1.52,0,3.05,0,4.57c0,0,0,0,0.01,0
			c0,1.34-0.05,2.68,0.01,4.01c0.17,4.69,2.29,8.28,6.28,10.76c1.79,1.12,3.66,2.13,5.48,3.22c1.11,0.65,2.18,0.65,3.29-0.01
			c1.35-0.8,2.73-1.58,4.09-2.37c0.19-0.11,0.38-0.23,0.57-0.34c0.24-0.14,0.48-0.29,0.71-0.43c0.17-0.1,0.33-0.21,0.49-0.32
			c0.29-0.19,0.57-0.39,0.84-0.6h-2.02v-0.82c-0.11,0.08-0.22,0.14-0.32,0.21c-0.09,0.06-0.17,0.1-0.26,0.16
			c-1.7,1.04-3.44,2.01-5.15,3.02c-0.43,0.25-0.78,0.23-1.2-0.02c-1.78-1.06-4-2.44-5.76-3.54c-3.42-2.13-5.18-5.22-5.26-9.23
			c-0.06-2.68,0-5.36-0.02-8.04C1.76,9.52,1.96,9.22,2.5,9.02C5.82,7.83,9.52,6.2,12.84,5c0.31-0.11,0.73-0.12,1.04-0.01
			C17.24,6.2,21,7.84,24.36,9.05c0.54,0.19,0.72,0.52,0.72,1.07c0,1.48,0.03,2.95,0.04,4.44c0.02,1.58,0.02,3.16-0.19,4.74
			c-0.08,0.57-0.18,1.14-0.31,1.69c-0.05,0.19-0.1,0.38-0.16,0.57h1.92c0.05-0.19,0.1-0.38,0.14-0.57c0.18-0.85,0.28-1.75,0.3-2.69
			C26.87,15.48,26.83,12.66,26.83,9.84z"/>
		<path class="st0" d="M12.34,19.71c1.01-1.11,2.01-2.19,3-3.28c0.64-0.7,1.28-1.42,1.93-2.12c0.51-0.55,1.15-0.63,1.63-0.22
			c0.48,0.41,0.52,1.09,0.03,1.63c-1.85,2.07-3.71,4.13-5.58,6.17c-0.49,0.54-1.13,0.57-1.71,0.09c-1.19-0.98-2.38-1.98-3.56-2.98
			c-0.58-0.5-0.67-1.11-0.27-1.61c0.42-0.51,1.09-0.54,1.69-0.04C10.45,18.13,11.37,18.91,12.34,19.71z"/>
	</g>
	<g>
		<path class="st0" d="M35.9,27.53c-0.4-0.82-0.81-1.64-1.22-2.48c-0.13-0.26-0.33-0.39-0.62-0.39c-1,0.02-2.01,0-3.01,0.02
			c-0.29,0-0.38,0.08-0.38,0.37v3.3h-0.29v-6.68c0-0.49-0.2-0.68-0.68-0.68h-9.88c-0.47,0-0.68,0.2-0.68,0.68v8.4
			c0.01,0.33,0.19,0.54,0.51,0.61c0.14,0.02,0.29,0.04,0.44,0.06c0.25,0.05,0.51,0.09,0.77,0.13c-0.17,1.12,0.61,1.93,1.45,2.03
			c0.43,0.05,0.82-0.05,1.16-0.31c0.56-0.41,0.79-0.96,0.7-1.66h7.34c-0.06,0.49,0.05,0.94,0.35,1.32c0.3,0.38,0.69,0.6,1.18,0.65
			c0.43,0.04,0.81-0.08,1.15-0.34c0.53-0.41,0.74-0.96,0.65-1.63c0.15,0,0.29-0.01,0.43,0c0.34,0.02,0.59-0.11,0.71-0.45v-2.69
			C35.98,27.69,35.94,27.61,35.9,27.53z M19.74,21.56h10.07v6.79H19.74V21.56z M22.53,32.33c-0.61,0-1.11-0.51-1.13-1.12
			c0-0.62,0.51-1.14,1.13-1.14c0.61-0.01,1.11,0.5,1.11,1.13C23.66,31.82,23.15,32.33,22.53,32.33z M30.66,30.33
			c-0.05,0-0.1,0.01-0.14,0.01c-2.13,0-4.25,0-6.38,0.01c-0.11,0-0.18-0.04-0.24-0.14c-0.65-0.94-2.04-0.96-2.73-0.03
			c-0.03,0.06-0.13,0.12-0.18,0.12c-0.42-0.06-0.84-0.13-1.27-0.2v-1.15h10.94V30.33z M34.61,26.38c0.04,0,0.11,0.02,0.12,0.05
			c0.17,0.35,0.36,0.71,0.54,1.08h-2.34v-1.11c0.02,0,0.05-0.01,0.07-0.01C33.53,26.38,34.07,26.37,34.61,26.38z M33.18,32.33
			c-0.62-0.02-1.12-0.53-1.1-1.15c0.02-0.64,0.52-1.13,1.13-1.12c0.61,0.01,1.11,0.53,1.11,1.14
			C34.31,31.84,33.79,32.34,33.18,32.33z M35.43,30.34c-0.25,0-0.48,0.01-0.71,0c-0.05,0-0.1-0.04-0.13-0.08
			c-0.73-1.02-2.08-1.02-2.8,0c-0.02,0.04-0.08,0.07-0.14,0.08c-0.14,0.01-0.27,0-0.41,0v-5.09c0.05-0.01,0.1-0.01,0.15-0.01
			c0.87,0,1.73,0,2.6-0.01c0.12,0,0.18,0.04,0.22,0.14c0.06,0.14,0.13,0.27,0.21,0.43h-1.68c-0.3,0-0.39,0.09-0.39,0.39v1.48
			c0,0.31,0.09,0.39,0.4,0.39h2.68V30.34z"/>
	</g>
</g>
</svg>
