<?xml version="1.0" encoding="utf-8"?>
<!-- Generator: Adobe Illustrator 25.3.1, SVG Export Plug-In . SVG Version: 6.00 Build 0)  -->
<svg version="1.1" id="Capa_1" xmlns="http://www.w3.org/2000/svg" xmlns:xlink="http://www.w3.org/1999/xlink" x="0px" y="0px"
	 viewBox="0 0 36 36" style="enable-background:new 0 0 36 36;" xml:space="preserve">
<style type="text/css">
	.st0{fill-rule:evenodd;clip-rule:evenodd;fill:#2E318A;}
</style>
<g>
	<path class="st0" d="M9.04,22.9c-1.15,0-2.08,0.93-2.08,2.08c0,1.15,0.93,2.08,2.08,2.08c1.15,0,2.08-0.93,2.08-2.08c0,0,0,0,0,0
		C11.12,23.83,10.19,22.9,9.04,22.9z M9.04,28.39c-1.88,0-3.41-1.53-3.41-3.41c0-1.88,1.53-3.41,3.41-3.41
		c1.88,0,3.41,1.53,3.41,3.41C12.45,26.86,10.92,28.39,9.04,28.39z"/>
	<path class="st0" d="M9.08,25.02L9.08,25.02l0.67,0L9.08,25.02z M9.08,26.37c-0.74,0-1.35-0.6-1.35-1.35c0-0.74,0.6-1.35,1.35-1.35
		c0.74,0,1.35,0.6,1.35,1.35C10.43,25.77,9.83,26.37,9.08,26.37z"/>
	<path class="st0" d="M28.64,22.9c-1.15,0-2.08,0.93-2.08,2.08c0,1.15,0.93,2.08,2.08,2.08c1.15,0,2.08-0.93,2.08-2.08v0
		C30.72,23.83,29.79,22.9,28.64,22.9z M28.64,28.39c-1.88,0-3.41-1.53-3.41-3.41c0-1.88,1.53-3.41,3.41-3.41s3.41,1.53,3.41,3.41
		C32.05,26.86,30.52,28.39,28.64,28.39z"/>
	<path class="st0" d="M28.6,25.02L28.6,25.02l0.67,0L28.6,25.02z M28.6,26.37c-0.74,0-1.35-0.6-1.35-1.35c0-0.74,0.6-1.35,1.35-1.35
		c0.74,0,1.35,0.6,1.35,1.35C29.94,25.77,29.34,26.37,28.6,26.37z"/>
	<rect x="11.86" y="24.27" class="st0" width="13.96" height="1.35"/>
	<path class="st0" d="M6.32,25.61H0.67c-0.37,0-0.67-0.3-0.67-0.66V8.28c0-0.37,0.29-0.67,0.67-0.67H22.8
		c0.37,0,0.67,0.29,0.67,0.67v12.08c0,0.37-0.29,0.66-0.67,0.66c-0.36,0-0.67-0.3-0.67-0.66V8.94H1.33v15.35h4.98
		c0.36,0,0.67,0.3,0.67,0.66S6.68,25.61,6.32,25.61z"/>
	<path class="st0" d="M34.22,25.61h-2.85c-0.36,0-0.66-0.3-0.66-0.67c0-0.37,0.29-0.67,0.66-0.67h2.85c0.18,0,0.35-0.09,0.46-0.23
		v-2.31c-0.59-0.97-3.67-6.03-4.38-7.13l-0.34-0.53c-0.79-1.23-1.01-1.52-1.43-1.52h-5.74c-0.37,0-0.67-0.3-0.67-0.67
		c0-0.36,0.29-0.67,0.67-0.67h5.74c1.19,0,1.73,0.85,2.54,2.13l0.34,0.52c0.79,1.22,4.35,7.07,4.49,7.32c0.06,0.1,0.1,0.22,0.1,0.35
		v2.52C35.9,24.97,35.12,25.65,34.22,25.61z"/>
	<path class="st0" d="M30.62,14.85h-6.25c-0.36,0-0.66-0.3-0.66-0.67c0-0.37,0.29-0.67,0.66-0.67h6.25c0.37,0,0.67,0.3,0.67,0.67
		C31.29,14.54,31,14.85,30.62,14.85z"/>
	<path class="st0" d="M35.09,22.92h-6.25c-0.36,0-0.66-0.3-0.66-0.67c0-0.37,0.29-0.67,0.66-0.67h6.25c0.36,0,0.66,0.3,0.66,0.67
		C35.75,22.62,35.45,22.92,35.09,22.92z"/>
	<path class="st0" d="M32.99,18.46h-6.76c-0.36,0-0.66-0.3-0.66-0.67v-1.78c0-0.37,0.29-0.67,0.66-0.67c0.36,0,0.67,0.3,0.67,0.67
		v1.12h6.09c0.36,0,0.66,0.3,0.66,0.66C33.64,18.16,33.35,18.46,32.99,18.46z"/>
	<path class="st0" d="M31.95,22.75c-0.36,0-0.66-0.3-0.66-0.66v-1.21c-0.01-0.47,0.16-0.92,0.5-1.25c0.38-0.33,0.87-0.51,1.37-0.5
		l1.09,0c0.36,0,0.66,0.3,0.66,0.66c0,0.37-0.29,0.66-0.66,0.66h-1.11c-0.16-0.01-0.32,0.04-0.44,0.13
		c-0.02,0.02-0.08,0.08-0.08,0.29v1.21C32.61,22.46,32.31,22.75,31.95,22.75z"/>
	<path class="st0" d="M22.8,20.99H3.02c-0.37,0-0.67-0.3-0.67-0.67s0.29-0.67,0.67-0.67H22.8c0.37,0,0.67,0.3,0.67,0.67
		S23.17,20.99,22.8,20.99z"/>
</g>
</svg>
