<svg xmlns="http://www.w3.org/2000/svg" version="1.1" viewBox="0 0 497 600" fill="#167d86" stroke="#167d86" stroke-width="0">
  <g transform="translate(-720, -170) scale(1.555555)">
    <circle cx="720" cy="300" r="175" fill="none" stroke-width="2"/>
    <circle cx="720" cy="300" r="200" fill="none" stroke-width="2"/>
    <circle cx="720" cy="300" r="251" fill="none" stroke-width="2" stroke-dasharray="13"/>
    <path d="M669.8 300.7h-6c-.2 0-.4-.1-.6-.3l-14-15.8-10.9-.5c-.2 0-.4-.1-.5-.3L597.5 236c-.1-.1-.1-.2-.1-.2l-15.2-44.5 1.4-.5 15.2 44.3 40 47.4 10.9.5c.2 0 .4.1.5.3l14 15.8h4.9v-3.6l-11-26.5-12.8-2.4c-.3-.1-.6-.3-.6-.7l-2.1-21.7c0-.2 0-.4.2-.6s.3-.2.6-.2h27.4l22-36.4c.1-.2.3-.3.6-.4l13.5-1.6-13.9-24.4-29 8c-.2.1-.4 0-.6-.1-.2-.1-.3-.3-.3-.5l-3.1-24.4c-.1-.4.2-.8.6-.8l20.4-2.7h.4l8 3.2 5.3-12.4-24.9-18 .9-1.2 25.4 18.3c.3.2.4.6.3.9l-5.8 13.6c-.2.4-.6.6-1 .4l-8.5-3.4-19.4 2.6 2.9 22.8 28.7-7.9c.3-.1.7.1.9.4l14.5 26c.1.2.1.5 0 .7-.1.2-.3.4-.6.4l-14.2 1.7-22 36.4c-.1.2-.4.4-.6.4h-27l2 20.4 12.6 2.4c.2 0 .5.2.6.4l11.2 27c0 .1.1.2.1.3v4.5c-.3.4-.6.7-1 .7z"/>
    <path d="M729 168.5l-5.3-.5c-.2 0-.3-.1-.4-.2L709 154.3c-.1-.1-.2-.3-.2-.5v-28.2h1.5v27.9l13.8 13.1 4.4.5 5.8-18c.1-.3.4-.5.7-.5l16.4-.7 7.6-1.8.2-8.7c0-.4.3-.7.8-.7h3.6V131h1.5v6.5c0 .4-.3.8-.8.8h-3.6l-.2 8.6c0 .3-.2.6-.6.7l-8.2 2h-.1l-16 .7-5.8 18.1c-.2-.1-.4.1-.8.1z"/>
    <path d="M695.1 435h-13.3c-.4 0-.8-.3-.8-.8v-86.8l-20.7-33.6c-.1-.1-.1-.2-.1-.4l-.1-5.8c0-.2.1-.4.3-.6l8.9-7.7c.1-.1.3-.2.5-.2l13.7-.5 3-4.2c.1-.2.4-.3.6-.3h14.2l2.9-.7h.1l9-.7c.2 0 .3 0 .5.1l35.5 24.7c.2.1.3.4.3.6l-.1 17.6c0 .1 0 .3-.1.4l-2.7 4v7.4c0 .2-.1.4-.3.6l-22.6 18.2-3 7-1.2 7.8c0 .2-.2.5-.4.6l-20.7 10.2.1 23c0 .2-.1.4-.2.5l-7.7 9.1 5 9.3c.1.2.1.5 0 .7-.1.3-.4.5-.6.5zm-12.6-1.5h11.3l-4.7-8.6c-.1-.3-.1-.6.1-.8l7.9-9.3-.1-23.2c0-.3.2-.5.4-.7l20.7-10.2 1.1-7.5c0-.1 0-.1.1-.2l3.1-7.3c0-.1.1-.2.2-.3l22.4-18.1V340c0-.1 0-.3.1-.4l2.7-4 .1-17-34.9-24.3-8.7.7-2.9.7h-14.1l-3 4.2c-.1.2-.3.3-.6.3l-13.8.5-8.4 7.3.1 5.2 20.7 33.6c.1.1.1.3.1.4v86.3z"/>
  </g>
</svg>
