<svg xmlns="http://www.w3.org/2000/svg" xmlns:xlink="http://www.w3.org/1999/xlink" version="1.1" viewBox="0 0 497 600" fill="#167d86" stroke="#167d86" stroke-width="0">
  <defs>
    <symbol id="small-wave" viewBox="1096 497 497 600">
      <path d="M1104.2 501.5c-4.7 0-8.4-1.9-8.4-4.3h1c0 1.6 3 3.3 7.4 3.3s7.4-1.7 7.4-3.3h1c0 2.4-3.7 4.3-8.4 4.3z"/>
    </symbol>
    <pattern id="small-waves" x="0" y="0" width="0.035" height="1">
      <use xlink:href="#small-wave" x="0" y="0"/>
    </pattern>
    <pattern id="grass" x="0" y="0" width="0.054" height="1">
      <rect width="14" height="2" x="0" y="0"/>
    </pattern>
    <pattern id="container-ribs" x="0" y="0" height="1" width="0.085">
      <rect width="1" height="25" x="1" y="0"/>
    </pattern>
    <pattern id="plain-windows" x="0" y="0" height="1" width="0.025">
      <circle r="1.25" cx="1.25" cy="1.25"/>
    </pattern>
    <pattern id="upper-deck-windows" x="0" y="0" height="1" width="0.06">
      <circle r="1.25" cx="1.25" cy="1.25"/>
    </pattern>
    <pattern id="bottom-deck-windows" x="0" y="0" height="1" width="0.05">
      <circle r="1.25" cx="1.25" cy="1.25"/>
    </pattern>
    <symbol id="container" width="76" height="32">
      <rect fill="none" width="76" height="32" x="0" y="0" stroke-width="2"/>
      <rect fill="url(#container-ribs)" width="68.5" height="25" x="4" y="3" stroke-width="1"/>
    </symbol>
    <clipPath id="boat">
      <rect width="78" height="25" x="0" y="0"/>
    </clipPath>
  </defs>
  <g transform="translate(-210, 260) scale(0.8)">
    <rect fill="url(#grass)" width="440" height="2" x="33.6" y="413.8"/>
    <polygon points="303.8 408.8 302.8 408.8 303.5 266 297.9 260.2 298.6 259.5 304.6 265.6"/>
    <rect width="1" height="21" x="296" y="269.8" transform="rotate(-44.4 296.5 280.3)"/>
    <rect width="1" height="25.2" x="294.4" y="297.3" transform="rotate(-44.2 294.9 309.9)"/>
    <rect width="1" height="43" x="287.9" y="309.5" transform="rotate(-45.2 288.4 331)"/>
    <rect width="1" height="139.9" x="307.9" y="266" transform="rotate(-.6 308.3 336) scale(.99996)"/>
    <rect width="33.9" height="1" x="303.2" y="281.3" transform="rotate(-45 320.1 281.8)"/>
    <rect width="1" height="7" x="323.6" y="270.8"/>
    <rect width="36.5" height="1" x="303" y="318.2" transform="rotate(-45.2 321.3 318.7)"/>
    <rect width="1" height="7.4" x="323.2" y="318.3" transform="rotate(-41 323.7 322)"/>
    <rect width="33" height="1" x="304" y="346" transform="rotate(-44.9 320.5 346.5)"/>
    <rect width="1" height="6.9" x="323.6" y="335.9"/>
    <path
      d="M322.4 364.9h-13.7v-1h13.7a35.1 35.1 0 0033.3-23.2c1-3.8 5.3-11 6-12v-16.9c0-4.3-2.4-7.6-7.2-9.7a23 23 0 00-7.4-1.8.4.4 0 01-.4-.4c-.1-.2 0-.4.2-.5 2.7-1.8 4.6-9.9 4.8-10.6v-17.9c0-7.4-8.2-7.5-8.5-7.5-.3 0-.5-.2-.5-.5 0-5.2-2.5-8.8-7.3-10.9-3.7-1.6-7.4-1.6-7.4-1.6-.3 0-.5-.2-.5-.5 0-12.5-7.1-15.5-7.2-15.5l-.1-.1s-1.7-.9-13-.9c-11.4 0-11.7 11-11.7 11.5 0 .3-.2.5-.5.5h-9.8c-4.4 0-8.9 7.6-9.5 8.6v12.9c0 .3-.2.5-.5.5h-4c-11.4 0-13.5 14.4-13.5 14.6v25.9c0 3.3 2.2 4.3 4.1 5.3l.6.3c.3.1.5.4.5.7.2 1-1.3 2.5-4.1 5.2-2.4 2.3-5.1 5-6.3 7.3-2 3.9-1 8.6 3 13.9 1.1 1.4 1.9 2.8 2.8 4.4 1.6 2.8 3.7 6.4 8.2 11.5 6.8 7.7 36.5 6.8 36.7 6.8v1c-1.2 0-30.5.9-37.5-7.2-4.6-5.2-6.6-8.8-8.3-11.7-.9-1.6-1.7-3-2.7-4.3-4.2-5.6-5.2-10.7-3-14.9 1.3-2.4 4-5.2 6.5-7.6 1.6-1.6 3.9-3.8 3.8-4.4l-.6-.3c-2-.9-4.7-2.2-4.7-6.2v-26c0-.2 2.2-15.5 14.5-15.5h3.5v-12.5l.1-.2c.2-.4 5.2-9.3 10.4-9.3h9.3c.2-2.3 1.7-12 12.7-12 10.8 0 13.1.8 13.5 1.1.6.3 7.6 3.5 7.7 16 2.6.1 14.9 1.5 15.2 13 2 .1 9 1.2 9 8.5v18.1c-.1.3-1.7 7.6-4.3 10.5 3.6.5 14.3 2.9 14.3 12.4v17l-.1.3c0 .1-5 8-5.9 11.9a36.1 36.1 0 01-34.2 23.9z"/>
  </g>
  <g transform="translate(-290, 260) scale(0.8)">
    <path d="M862.1 399.8h-23c-4.4 0-8-3.6-8-8s3.6-8 8-8h23c4.4 0 8 3.6 8 8s-3.6 8-8 8zm-23-15c-3.9 0-7 3.1-7 7s3.1 7 7 7h23c3.9 0 7-3.1 7-7s-3.1-7-7-7h-23z"/>
    <rect width="2" height="20" x="549.1" y="388.8"/>
    <rect width="2" height="95" x="553.1" y="293.8"/>
    <polygon points="873.3 378.8 554.1 378.8 554.1 376.8 871.3 376.8 871.3 297.8 554.1 297.8 554.1 295.8 873.3 295.8"/>
    <rect width="357" height="2" x="585.1" y="413.6"/>
    <path
      d="M947.1 403.8h-2c0-8.2 3.2-10.8 4.7-11.7v-7.3h-7.7a1 1 0 01-.9-.5c-.2-.3-.1-.7.1-1l4.8-6.7V353c-11.3-36.6-39.9-47.3-42.2-48.2h-9.8v18c0 .6-.4 1-1 1h-1v6c0 .6-.4 1-1 1h-2v48h-2v-49c0-.6.4-1 1-1h2v-6c0-.6.4-1 1-1h1v-18c0-.6.4-1 1-1h11.3c.3.1 31.6 10.6 43.6 49.7v24.3l-.2.6-3.9 5.4h6.8c.6 0 1 .4 1 1v9c0 .5-.3.9-.8 1 .2 0-3.8 1.3-3.8 10z"/>
    <rect width="1" height="50.7" x="893.6" y="326.1"/>
    <rect width="42" height="1" x="891.1" y="325.6"/>
    <rect width="1" height="50.7" x="902.2" y="326.1"/>
    <rect width="5" height="1" x="908.1" y="360.3"/>
    <path
      d="M931.2 353.8c-11 0-24.1-4.5-24.2-4.5l-.3-.1v-15.4c0-2 2.3-2.5 3.5-2.5h20c5.4 0 5.5 5.4 5.5 5.5v13c-.1 2.7-3 3.8-4.5 4zm-23.6-5.3a86 86 0 0023.5 4.4c.1 0 3.5-.5 3.5-3v-13c0-.2-.1-4.5-4.5-4.5h-20s-2.5 0-2.5 1.5v14.6z"/>
    <polygon points="935.1 347.3 931.6 347.3 931.6 332.1 932.6 332.1 932.6 346.3 935.1 346.3"/>
    <polygon points="940.3 384.3 917.1 384.3 917.1 383.3 939.3 383.3 939.3 335.8 940.3 335.8"/>
    <path
      d="M938.6 403.3H924v-8.7h17.3v-10.7h1v14.2l-.2.2c-1 .8-3.5 3.2-3.5 4.6v.4zm-13.5-1h12.6c.4-1.9 2.9-4.1 3.7-4.7v-2h-16.3v6.7z"/>
    <rect width="20.8" height="1" x="919.5" y="388.3"/>
    <polygon points="776.6 392.3 742.3 392.3 742.3 378.8 743.3 378.8 743.3 391.3 775.6 391.3 775.6 377.8 776.6 377.8"/>
    <rect width="1" height="10" x="689.1" y="378.8"/>
    <rect width="1" height="10" x="723.2" y="378.8"/>
    <rect width="1" height="14.5" x="841.1" y="384.6"/>
    <rect width="1" height="14.5" x="859.1" y="384.6"/>
    <rect width="41" height="1" x="686.1" y="388.3"/>
    <rect width="27.7" height="1" x="610.1" y="390.4"/>
    <path d="M589 415.6a17 17 0 110-34 17 17 0 010 34zm0-32a15 15 0 100 30 15 15 0 000-30z"/>
    <path d="M658.3 415.6a17 17 0 110-34 17 17 0 010 34zm0-32a15 15 0 100 30 15 15 0 000-30z"/>
    <path d="M802.1 415.6a17 17 0 110-34 17 17 0 010 34zm0-32a15 15 0 100 30 15 15 0 000-30z"/>
    <path d="M899.1 415.6a17 17 0 110-34 17 17 0 010 34zm0-32a15 15 0 100 30 15 15 0 000-30z"/>
    <path
      d="M589 403.9c-2.9 0-5.2-2.4-5.2-5.2s2.4-5.2 5.2-5.2 5.2 2.4 5.2 5.2-2.3 5.2-5.2 5.2zm0-9.5c-2.3 0-4.2 1.9-4.2 4.2s1.9 4.2 4.2 4.2 4.2-1.9 4.2-4.2-1.9-4.2-4.2-4.2z"/>
    <path
      d="M658.3 403.9c-2.9 0-5.2-2.4-5.2-5.2s2.4-5.2 5.2-5.2 5.2 2.4 5.2 5.2-2.3 5.2-5.2 5.2zm0-9.5c-2.3 0-4.2 1.9-4.2 4.2s1.9 4.2 4.2 4.2 4.2-1.9 4.2-4.2-1.9-4.2-4.2-4.2z"/>
    <path
      d="M802.1 403.9c-2.9 0-5.2-2.4-5.2-5.2s2.4-5.2 5.2-5.2 5.2 2.4 5.2 5.2-2.3 5.2-5.2 5.2zm0-9.5c-2.3 0-4.2 1.9-4.2 4.2s1.9 4.2 4.2 4.2 4.2-1.9 4.2-4.2-1.8-4.2-4.2-4.2z"/>
    <path
      d="M899.1 403.9c-2.9 0-5.2-2.4-5.2-5.2s2.4-5.2 5.2-5.2 5.2 2.4 5.2 5.2-2.3 5.2-5.2 5.2zm0-9.5c-2.3 0-4.2 1.9-4.2 4.2s1.9 4.2 4.2 4.2 4.2-1.9 4.2-4.2-1.8-4.2-4.2-4.2z"/>
    <path d="M564.5 398.1l-.8-.6c3.3-4.1 11.9-15.6 11.9-18.7h1c0 4.2-11.6 18.7-12.1 19.3z"/>
    <path d="M633.1 398.1l-.8-.6c3.3-4.1 11.9-15.6 11.9-18.7h1c0 4.2-11.6 18.7-12.1 19.3z"/>
    <path d="M777.6 398.1l-.8-.6c3.3-4.1 11.9-15.6 11.9-18.7h1c.1 4.2-11.6 18.7-12.1 19.3z"/>
    <path
      d="M612.8 399.2c-2-1.5-2.2-3-2.4-4.8a18 18 0 00-3.7-9.3c-2-2.9-6.6-5.2-12.9-6.7l.2-1c3.8.9 10.6 2.9 13.5 7.1 3.3 4.7 3.6 7.6 3.9 9.8.2 1.8.3 2.9 2 4.1l-.6.8z"/>
    <path
      d="M681.4 399.2c-2-1.5-2.2-3-2.4-4.8a18 18 0 00-3.7-9.3c-2-2.9-6.6-5.2-12.9-6.7l.2-1c3.8.9 10.6 2.9 13.5 7.1 3.3 4.7 3.6 7.6 3.9 9.8.2 1.8.3 2.9 2 4.1l-.6.8z"/>
    <path
      d="M826 399.2c-2-1.5-2.2-3-2.4-4.8a18 18 0 00-3.7-9.3c-2-2.9-6.6-5.2-12.9-6.7l.2-1c3.8.9 10.6 2.9 13.5 7.1 3.3 4.7 3.6 7.6 3.9 9.8.2 1.8.3 2.9 2 4.1l-.6.8z"/>
    <path
      d="M922.7 397l-6.7-14c-2-4.1-8.2-5.4-10.8-5.4h-12s-4.8.7-7.6 3.5c-1.6 1.6-4 5.2-6 8.4-1.7 2.6-3.1 4.8-4 5.6l-.7-.7a43 43 0 003.8-5.5c2.1-3.2 4.4-6.8 6.2-8.5 3.1-3.1 8.1-3.8 8.3-3.8h12.1c2.3 0 9.3 1.1 11.7 5.9l6.7 14-1 .5z"/>
  </g>
  <g transform="translate(-490, 10) scale(0.8)">
    <path id="cloud" d="M663.1 76.7h-36v-1a18 18 0 0136 0v1zm-33.9-2h31.9a16 16 0 00-31.9 0z"/>
    <use xlink:href="#cloud" x="36" y="0"/>
    <use xlink:href="#cloud" x="76" y="37"/>
    <use xlink:href="#cloud" x="381" y="140"/>
    <use xlink:href="#cloud" x="441" y="85"/>
    <use xlink:href="#cloud" x="476" y="85"/>

    <rect width="42.7" height="2" x="842.8" y="130.3" transform="rotate(-20.5 864.2 131.3)"/>
    <circle r="1.25" cx="914" cy="114"/>
    <rect width="260" height="2" x="925" y="108" fill="url(#plain-windows)" transform="rotate(-21 925 108)"/>
    <path
      d="M987.3 118.6l-.6-.8c.4-.3 37.5-31.7 68.6-48.7 17.9-9.8 37.2-12.1 42-10.5 3.1 1 4.7 2.5 5 4.5.7 5.4-9.7 12.1-10.1 12.4l-.5-.8c.1-.1 10.3-6.7 9.7-11.4-.2-1.6-1.7-2.8-4.3-3.7-4.7-1.5-23.6.7-41.3 10.4-31 17-68.1 48.3-68.5 48.6z"/>
    <rect width="1" height="91.5" x="826.6" y="45.5" transform="rotate(-49.9 827.2 91.3)"/>
    <path
    d="M842.1 147.8c-3.4 0-6.2-1.7-7.2-4.5-1.3-3.6.5-8 4.9-11.6a141 141 0 0123.8-13.8 586.3 586.3 0 0156.2-25l62.1-23.1c53.8-19.8 127.4-47 135.8-50.9l5.6-2.8c18.8-9.4 68.6-34.5 100.8-17.9 4.7 2.4 7.1 5.6 7.1 9.4-.1 13.9-33.1 30.8-39.7 34.1-21.8 10.7-97 37.8-97.8 38l-.7-1.9c.8-.3 75.9-27.3 97.6-38 17.7-8.7 38.4-22.4 38.5-32.3 0-3-2-5.6-6-7.6-31.2-16.1-80.5 8.6-99 17.9l-5.7 2.8c-8.5 3.9-79.2 30-135.9 51-29.3 10.8-54.6 20.1-62.1 23.1a594 594 0 00-56 25c-10.7 5.5-18.7 9.6-23.4 13.6-4.3 3.6-5 7.2-4.3 9.3.7 2 2.7 3.2 5.3 3.2 7.7 0 87.8-8.6 99.4-12 7.6-2.2 43.4-15.7 69.6-25.6 15.3-5.8 27.5-10.3 29.9-11.1l.6 1.9-29.8 11.1c-26.2 9.9-62.1 23.4-69.8 25.6-11.5 3.5-92 12.1-99.8 12.1z"/>
    <path d="M842.5 131.6l-60-66.6 19.2-7.9c.7-.4 3.2-1.6 8.9 1.3 5.7 2.9 55.2 25.3 65 29.5 16.8 7.4 30 10.4 36.3 8.2l.7 1.9c-9.2 3.2-27.6-3.8-37.7-8.2-9.7-4.3-59.3-26.7-65-29.6-5.1-2.6-6.9-1.4-6.9-1.4l-.2.1-16.7 6.9 58.1 64.5-1.7 1.3z"/>
    <path d="M1042.9 99.3c-1.4 0-1.8-.4-2-.7l-.1-.2-2-5.7c-.3-.8-.5-2.7 4.1-6s17.1-11.5 17.2-11.6l1.1 1.7c-.1.1-12.6 8.3-17.1 11.5-3.2 2.3-3.4 3.5-3.4 3.7l1.8 5.3c.4 0 1.5 0 3.8-.5 5.5-1.3 20.1-4.1 20.3-4.1l.4 2c-.1 0-14.8 2.9-20.2 4.1-1.8.4-3.1.5-3.9.5z"/>
    <path d="M1069.6 95.8c-1 0-2.2-.3-3.2-1.3l-.1-.1-7.5-19.1c-.2-.3-.6-1.4-.1-2.7.5-1.5 2.1-2.8 4.6-3.7 5.4-2 17.7-6.2 18.6-6.5.4-.2 2.6-1.1 4.5-.3 1.2.5 2 1.5 2.5 3 1.2 4 5.2 13.9 5.5 14.7.2.4 1.3 2.7.6 4.8a5.4 5.4 0 01-3.1 3c-4.4 1.8-18.2 7-19.3 7.4-.4.3-1.6.8-3 .8zm-1.6-2.6c1.5 1.3 3.6.1 3.7.1l.1-.1c.1-.1 14.8-5.6 19.3-7.5 1-.4 1.7-1 1.9-1.8.5-1.5-.4-3.2-.4-3.3l-.1-.1c-.2-.4-4.3-10.7-5.6-14.9-.3-.9-.7-1.5-1.3-1.8-1-.4-2.4 0-2.9.2l-.1.1c-.1 0-13.1 4.4-18.6 6.5-2.4.9-3.1 1.8-3.4 2.5-.2.6 0 1.1 0 1.1l.1.1 7.3 18.9z"/>
    <rect width="1" height="25.1" x="1086.3" y="62.5" transform="rotate(-21.5 1086.8 75)"/>
  </g>
  <g transform="translate(-930, -70) scale(0.8)">
    <path d="M1536.7 500h-2v-1.8c-.4-7.8 18.8-30.9 24.3-37.3h-339.8c-6.1 0-8 8.1-8 8.2l-.2.8h-135.5c.5 1.6 1.6 5.2 4.7 13.7 4.7 13.1 15.4 12.7 15.9 12.7l.1 2c-.1 0-12.7.5-17.9-14a175 175 0 01-5.1-15.3v-1h136.2c.7-2.3 3.3-9 9.8-9h344.2l-1.4 1.7c-7.1 8.2-25.5 30.9-25.2 37.6l-.1 1.7z"/>
    <polygon points="1229.1 383.1 1228.1 383.1 1228.1 352.6 1186.1 373.4 1185.9 373.3 1145.1 352.6 1145.1 383.1 1144.1 383.1 1144.1 351 1186.1 372.3 1229.1 351"/>
    <polygon points="1186.6 373.6 1178.8 363.3 1144.5 352.3 1144.8 351.3 1179.4 362.4 1186.6 372 1190.7 366.8 1193.8 362.4 1228.5 351.3 1228.8 352.3 1194.4 363.2 1191.5 367.3"/>
    <path d="M1144.6 385.1c1.1 0 2-.9 2-2s-.9-2-2-2-2 .9-2 2 .9 2 2 2"/>
    <path d="M1228.6 385.1c1.1 0 2-.9 2-2s-.9-2-2-2-2 .9-2 2 .9 2 2 2"/>
    <path d="M1144.6 353.8a2 2 0 002-2 2 2 0 00-2-2 2 2 0 00-2 2c0 1.1.9 2 2 2"/>
    <path d="M1228.6 353.8a2 2 0 002-2 2 2 0 00-2-2 2 2 0 00-2 2c0 1.1.9 2 2 2"/>
    <path d="M1179.1 364.8a2 2 0 002-2 2 2 0 00-2-2 2 2 0 00-2 2c0 1.1.9 2 2 2"/>
    <path d="M1182.1 368.8a2 2 0 002-2 2 2 0 00-2-2 2 2 0 00-2 2c0 1.1.9 2 2 2"/>
    <path d="M1191.1 368.8a2 2 0 002-2 2 2 0 00-2-2 2 2 0 00-2 2c0 1.1.9 2 2 2"/>
    <path d="M1194.1 364.8a2 2 0 002-2 2 2 0 00-2-2 2 2 0 00-2 2c0 1.1.9 2 2 2"/>

    <rect fill="url(#upper-deck-windows)" width="99" height="3" x="1228" y="451"/>
    <rect fill="url(#bottom-deck-windows)" width="118" height="3" x="1218" y="466"/>

    <rect width="467.1" height="1" x="1078" y="479"/>
    <rect width="1" height="29" x="1162.3" y="468.3"/>
    <use xlink:href="#container" x="1349" y="405"/>
    <use xlink:href="#container" clip-path="url(#boat)" x="1349" y="436"/>
    <use xlink:href="#container" clip-path="url(#boat)" x="1424" y="436"/>
    <use xlink:href="#container" clip-path="url(#boat)" x="1083" y="443"/>

    <rect width="2" height="135" x="1185.6" y="333.8"/>
    <path d="M1183.1 468.8h-2v-11h-6c-4 0-4 3.8-4 4v7h-2v-7c0-2.1 1.3-6 6-6h8v13z"/>
    <path d="M1201.2 468.6h-2v-4.4c0-.4-.1-2.2-2.2-2.2h-3.4v6.6h-2V460h5.4c3.1 0 4.2 2.5 4.2 4.2v4.4z"/>
    <path d="M1339.1 459.3h-2c0-1.3-.5-2.6-1.4-5-1.3-3.3-3.2-8.3-5.5-17.7-3.7-15.3-13.6-14.9-14-14.8h-28.1v12.5h-32v5.5h-31v17h-16v-2h14v-17h31v-5.5h32v-12.5h30c.1 0 11.8-.6 16 16.4 2.3 9.3 4.2 14.2 5.5 17.4.9 2.5 1.5 4 1.5 5.7z"/>
    <rect width="109" height="1" x="1224.1" y="444.3"/>
    <rect width="77" height="1" x="1255.1" y="438.9"/>
    <rect width="42" height="1" x="1288.1" y="433.4"/>
    <path id="big-wave" d="M1132.5 541.8c-7.6 0-13.6-3.1-13.6-7h1c0 3.3 5.8 6 12.6 6s12.6-2.7 12.6-6h1c0 3.9-5.9 7-13.6 7z"/>
    <use xlink:href="#big-wave" x="-27" y="0"/>
    <use xlink:href="#big-wave" x="311" y="7"/>
    <use xlink:href="#big-wave" x="338" y="7"/>
    <use xlink:href="#big-wave" x="366" y="-17"/>
    <use xlink:href="#big-wave" x="393" y="-17"/>
    <use xlink:href="#big-wave" x="420" y="-17"/>
    <use xlink:href="#big-wave" x="447" y="-17"/>
    <rect fill="url(#small-waves)" width="472" height="7" x="1078" y="496"/>
  </g>
</svg>
